<svg xmlns="http://www.w3.org/2000/svg" viewBox="0 0 462 580" enable-background="new 0 0 462 580"><path fill="#1D1D1B" d="M75.217 118.52h-30.47c-1.41 0-2.564-1.152-2.564-2.562v-8.543c0-1.41 1.153-2.563 2.563-2.563h30.472c1.41 0 2.563 1.153 2.563 2.563v8.543c0 1.41-1.153 2.563-2.563 2.563M75.217 36.456h-30.47c-1.41 0-2.564-1.153-2.564-2.563V25.35c0-1.41 1.153-2.563 2.563-2.563h30.472c1.41 0 2.563 1.153 2.563 2.563v8.543c0 1.41-1.153 2.563-2.563 2.563M184.16 118.52h-30.472c-1.41 0-2.563-1.152-2.563-2.562v-8.543c0-1.41 1.153-2.563 2.563-2.563h30.47c1.41 0 2.564 1.153 2.564 2.563v8.543c0 1.41-1.153 2.563-2.563 2.563M184.16 36.456h-30.472c-1.41 0-2.563-1.153-2.563-2.563V25.35c0-1.41 1.153-2.563 2.563-2.563h30.47c1.41 0 2.564 1.153 2.564 2.563v8.543c0 1.41-1.153 2.563-2.563 2.563"/><path fill="#333F48" d="M36.89 25.7c-9.436 0-17.085 7.65-17.085 17.086V98.04c0 9.435 7.65 17.085 17.085 17.085h158.466c9.435 0 17.084-7.65 17.084-17.085V42.786c0-9.436-7.65-17.085-17.085-17.085H36.89z"/><path fill="#E5F5F9" d="M159.623 105.68h-33.316c-4.698 0-8.543-3.844-8.543-8.543V44.172c0-4.698 3.844-8.543 8.543-8.543h33.316c4.698 0 8.543 3.843 8.543 8.542v52.966c0 4.698-3.845 8.542-8.543 8.542M53.883 105.68h-.758c-4.698 0-8.543-3.844-8.543-8.543V44.172c0-4.698 3.844-8.543 8.543-8.543h.758c4.698 0 8.543 3.843 8.543 8.542v52.966c0 4.698-3.845 8.542-8.543 8.542"/><path fill="#F47706" d="M19.405 51.62c-.657 0-1.19-2.454-1.19-5.482s.533-5.484 1.19-5.484 1.19 2.455 1.19 5.484c0 3.028-.533 5.483-1.19 5.483M19.405 100.172c-.657 0-1.19-2.455-1.19-5.483 0-3.03.533-5.484 1.19-5.484s1.19 2.454 1.19 5.483c0 3.027-.533 5.482-1.19 5.482"/><path fill="#262F35" d="M205.105 28.766c1.927 2.766 3.065 6.123 3.065 9.75v56.96c0 9.437-6.34 15.374-15.777 15.374H32.217c-3.625 0-6.63-1.138-9.397-3.065 3.087 4.43 7.86 7.336 13.67 7.336h158.465c9.435 0 17.485-7.645 17.485-17.08V42.785c0-5.81-2.904-10.933-7.335-14.02"/><path fill="#1D1D1B" d="M303.186 118.52h-30.47c-1.41 0-2.564-1.152-2.564-2.562v-8.543c0-1.41 1.153-2.563 2.563-2.563h30.47c1.41 0 2.564 1.153 2.564 2.563v8.543c0 1.41-1.154 2.563-2.564 2.563M303.186 36.456h-30.47c-1.41 0-2.564-1.153-2.564-2.563V25.35c0-1.41 1.153-2.563 2.563-2.563h30.47c1.41 0 2.564 1.153 2.564 2.563v8.543c0 1.41-1.154 2.563-2.564 2.563M412.128 118.52h-30.472c-1.41 0-2.563-1.152-2.563-2.562v-8.543c0-1.41 1.153-2.563 2.563-2.563h30.472c1.41 0 2.563 1.153 2.563 2.563v8.543c0 1.41-1.152 2.563-2.562 2.563M412.128 36.456h-30.472c-1.41 0-2.563-1.153-2.563-2.563V25.35c0-1.41 1.153-2.563 2.563-2.563h30.472c1.41 0 2.563 1.153 2.563 2.563v8.543c0 1.41-1.152 2.563-2.562 2.563"/><path fill="#333F48" d="M264.86 25.7c-9.437 0-17.086 7.65-17.086 17.086V98.04c0 9.435 7.65 17.085 17.085 17.085h158.465c9.435 0 17.084-7.65 17.084-17.085V42.786c0-9.436-7.65-17.085-17.086-17.085H264.86z"/><path fill="#E5F5F9" d="M387.592 105.68h-33.316c-4.698 0-8.543-3.844-8.543-8.543V44.172c0-4.698 3.844-8.543 8.543-8.543h33.316c4.698 0 8.543 3.843 8.543 8.542v52.966c0 4.698-3.845 8.542-8.543 8.542M281.852 105.68h-.758c-4.698 0-8.543-3.844-8.543-8.543V44.172c0-4.698 3.845-8.543 8.544-8.543h.758c4.698 0 8.543 3.843 8.543 8.542v52.966c0 4.698-3.845 8.542-8.543 8.542"/><path fill="#F47706" d="M247.374 51.62c-.657 0-1.19-2.454-1.19-5.482s.533-5.484 1.19-5.484c.657 0 1.19 2.455 1.19 5.484 0 3.028-.533 5.483-1.19 5.483M247.374 100.172c-.657 0-1.19-2.455-1.19-5.483 0-3.03.533-5.484 1.19-5.484.657 0 1.19 2.454 1.19 5.483 0 3.027-.533 5.482-1.19 5.482"/><path fill="#262F35" d="M433.192 28.766c1.927 2.766 3.065 6.123 3.065 9.75v56.96c0 9.437-6.46 15.374-15.896 15.374H260.188c-3.626 0-6.632-1.138-9.398-3.065 3.086 4.43 7.86 7.336 13.668 7.336H422.923c9.436 0 17.605-7.645 17.605-17.08V42.785c0-5.81-2.904-10.933-7.336-14.02"/><path fill="none" stroke="#fff" stroke-width="7" stroke-linecap="round" stroke-linejoin="round" d="M4.53 4.08h454"/><path fill="none" stroke="#fff" stroke-width="10" stroke-linecap="round" stroke-linejoin="round" stroke-miterlimit="10" stroke-dasharray="30,50" d="M15.107 298.788h455.32"/><path fill="none" stroke="#fff" stroke-width="7" stroke-linecap="round" stroke-linejoin="round" stroke-miterlimit="10" d="M3.817 22.26v36.733M229.662 95.58v36.733M229.662 21.26v36.733M247.662 132.74h-36M3.817 96.58v36.733M22.183 133.74H4.243M458.183 22.26v36.733M458.183 96.58v36.733M439.817 133.74h17.94"/><path fill="#1D1D1B" d="M154.53 558.287h30.472c1.41 0 2.563-1.153 2.563-2.563v-8.543c0-1.41-1.153-2.562-2.563-2.562h-30.47c-1.41 0-2.564 1.153-2.564 2.563v8.544c0 1.41 1.154 2.563 2.563 2.563M154.53 476.222h30.472c1.41 0 2.563-1.153 2.563-2.563v-8.544c0-1.41-1.153-2.563-2.563-2.563h-30.47c-1.41 0-2.564 1.153-2.564 2.563v8.543c0 1.41 1.154 2.562 2.563 2.562M45.59 558.287h30.47c1.41 0 2.563-1.153 2.563-2.563v-8.543c0-1.41-1.153-2.562-2.563-2.562H45.59c-1.41 0-2.564 1.153-2.564 2.563v8.544c0 1.41 1.154 2.563 2.563 2.563M45.59 476.222h30.47c1.41 0 2.563-1.153 2.563-2.563v-8.544c0-1.41-1.153-2.563-2.563-2.563H45.59c-1.41 0-2.564 1.153-2.564 2.563v8.543c0 1.41 1.154 2.562 2.563 2.562"/><path fill="#333F48" d="M34.393 465.467c-9.436 0-17.085 7.65-17.085 17.085v55.254c0 9.435 7.65 17.085 17.085 17.085h158.465c9.436 0 17.085-7.65 17.085-17.084v-55.254c0-9.436-7.65-17.085-17.085-17.085H34.393z"/><path fill="#E5F5F9" d="M70.126 545.446h33.316c4.698 0 8.543-3.844 8.543-8.543v-52.966c0-4.698-3.844-8.543-8.543-8.543H70.126c-4.698 0-8.543 3.844-8.543 8.543v52.966c0 4.7 3.844 8.543 8.543 8.543M175.866 545.446h.758c4.698 0 8.543-3.844 8.543-8.543v-52.966c0-4.698-3.844-8.543-8.543-8.543h-.758c-4.698 0-8.543 3.844-8.543 8.543v52.966c0 4.7 3.844 8.543 8.543 8.543"/><path fill="#F47706" d="M210.344 491.387c.657 0 1.19-2.455 1.19-5.483 0-3.027-.533-5.483-1.19-5.483s-1.19 2.457-1.19 5.484c0 3.028.533 5.483 1.19 5.483M210.344 539.938c.657 0 1.19-2.455 1.19-5.484s-.533-5.483-1.19-5.483-1.19 2.455-1.19 5.484.533 5.484 1.19 5.484"/><path fill="#262F35" d="M25.006 468.532c-1.927 2.766-3.065 6.122-3.065 9.75v56.96c0 9.437 5.98 14.7 15.416 14.7H197.53c3.626 0 6.632-1.14 9.398-3.066-3.086 4.43-7.86 7.336-13.67 7.336H34.793c-9.434 0-17.123-6.97-17.123-16.406v-55.254c0-5.81 2.904-10.933 7.336-14.02"/><path fill="none" stroke="#fff" stroke-width="7" stroke-linecap="round" stroke-linejoin="round" d="M458.09 575.996H3.428"/><path fill="none" stroke="#fff" stroke-width="7" stroke-linecap="round" stroke-linejoin="round" stroke-miterlimit="10" d="M458.895 559.337v-36.733M230.808 485.017v-36.733M230.808 559.337v-36.733M212.44 447.856h36.734M458.895 485.017v-36.733M440.53 447.856h17.938M3.574 559.337v-36.733M3.574 485.017v-36.733M21.94 447.856H4"/></svg>