<svg xmlns="http://www.w3.org/2000/svg" viewBox="0 0 462 580" enable-background="new 0 0 462 580"><path fill="#1D1D1B" d="M60.193 338.673H29.83c-1.404 0-2.554-1.147-2.554-2.55v-8.5c0-1.4 1.15-2.55 2.554-2.55h30.363c1.404 0 2.554 1.148 2.554 2.55v8.5c0 1.402-1.15 2.55-2.554 2.55M60.193 257.027H29.83c-1.404 0-2.554-1.147-2.554-2.55v-8.5c0-1.4 1.15-2.55 2.554-2.55h30.363c1.404 0 2.554 1.148 2.554 2.55v8.5c0 1.403-1.15 2.55-2.554 2.55M168.745 338.673h-30.363c-1.404 0-2.554-1.147-2.554-2.55v-8.5c0-1.4 1.15-2.55 2.554-2.55h30.363c1.404 0 2.554 1.148 2.554 2.55v8.5c0 1.402-1.15 2.55-2.555 2.55M168.745 257.027h-30.363c-1.404 0-2.554-1.147-2.554-2.55v-8.5c0-1.4 1.15-2.55 2.554-2.55h30.363c1.404 0 2.554 1.148 2.554 2.55v8.5c0 1.403-1.15 2.55-2.555 2.55"/><path fill="#333F48" d="M22.003 246.327c-9.402 0-17.024 7.61-17.024 16.998v54.972c0 9.387 7.62 16.998 17.023 16.998h157.9c9.402 0 17.024-7.61 17.024-16.998v-54.972c0-9.388-7.622-16.998-17.024-16.998h-157.9z"/><path fill="#E5F5F9" d="M144.296 325.898H111.1c-4.683 0-8.513-3.825-8.513-8.5v-52.694c0-4.674 3.83-8.5 8.512-8.5h33.196c4.682 0 8.512 3.826 8.512 8.5V317.4c0 4.673-3.83 8.498-8.512 8.498M38.934 325.898h-.755c-4.683 0-8.513-3.825-8.513-8.5v-52.694c0-4.674 3.83-8.5 8.512-8.5h.754c4.682 0 8.512 3.826 8.512 8.5V317.4c0 4.673-3.83 8.498-8.512 8.498"/><path fill="#F47706" d="M4.58 272.115c-.655 0-1.185-2.443-1.185-5.456 0-3.013.53-5.457 1.185-5.457s1.185 2.443 1.185 5.456c0 3.012-.53 5.455-1.185 5.455M4.58 320.417c-.655 0-1.185-2.443-1.185-5.455 0-3.013.53-5.455 1.185-5.455s1.185 2.442 1.185 5.455-.53 5.455-1.185 5.455"/><path fill="#262F35" d="M189.616 249.376c1.92 2.752 3.054 6.09 3.054 9.7v56.67c0 9.388-6.32 15.295-15.72 15.295H17.346c-3.612 0-6.607-1.13-9.363-3.048 3.076 4.408 7.832 7.3 13.62 7.3h157.9c9.402 0 17.423-7.608 17.423-16.996v-54.972c0-5.78-2.896-10.877-7.31-13.948"/><path fill="#1D1D1B" d="M60.193 145.746H29.83c-1.404 0-2.554-1.147-2.554-2.55v-8.5c0-1.4 1.15-2.55 2.554-2.55h30.363c1.404 0 2.554 1.148 2.554 2.55v8.5c0 1.402-1.15 2.55-2.554 2.55M60.193 64.1H29.83c-1.404 0-2.554-1.147-2.554-2.55v-8.5c0-1.4 1.15-2.55 2.554-2.55h30.363c1.404 0 2.554 1.148 2.554 2.55v8.5c0 1.402-1.15 2.55-2.554 2.55M168.745 145.746h-30.363c-1.404 0-2.554-1.147-2.554-2.55v-8.5c0-1.4 1.15-2.55 2.554-2.55h30.363c1.404 0 2.554 1.148 2.554 2.55v8.5c0 1.402-1.15 2.55-2.555 2.55M168.745 64.1h-30.363c-1.404 0-2.554-1.147-2.554-2.55v-8.5c0-1.4 1.15-2.55 2.554-2.55h30.363c1.404 0 2.554 1.148 2.554 2.55v8.5c0 1.402-1.15 2.55-2.555 2.55"/><path fill="#333F48" d="M22.003 53.4C12.6 53.4 4.98 61.01 4.98 70.398v54.972c0 9.387 7.62 16.998 17.023 16.998h157.9c9.402 0 17.024-7.61 17.024-16.998V70.398c0-9.388-7.622-16.998-17.024-16.998h-157.9z"/><path fill="#E5F5F9" d="M144.296 132.97H111.1c-4.683 0-8.513-3.825-8.513-8.5V71.777c0-4.674 3.83-8.5 8.512-8.5h33.196c4.682 0 8.512 3.826 8.512 8.5v52.695c0 4.676-3.83 8.5-8.512 8.5M38.934 132.97h-.755c-4.683 0-8.513-3.825-8.513-8.5V71.777c0-4.674 3.83-8.5 8.512-8.5h.754c4.682 0 8.512 3.826 8.512 8.5v52.695c0 4.676-3.83 8.5-8.512 8.5"/><path fill="#F47706" d="M4.58 79.187c-.655 0-1.185-2.443-1.185-5.455 0-3.013.53-5.456 1.185-5.456s1.185 2.443 1.185 5.456c0 3.013-.53 5.455-1.185 5.455M4.58 127.49c-.655 0-1.185-2.443-1.185-5.455 0-3.013.53-5.455 1.185-5.455s1.185 2.442 1.185 5.455c0 3.012-.53 5.455-1.185 5.455"/><path fill="#262F35" d="M189.616 56.45c1.92 2.75 3.054 6.09 3.054 9.698v56.67c0 9.39-6.32 15.296-15.72 15.296H17.346c-3.612 0-6.607-1.132-9.363-3.05 3.076 4.41 7.832 7.3 13.62 7.3h157.9c9.402 0 17.423-7.607 17.423-16.995V70.396c0-5.78-2.896-10.878-7.31-13.948"/><path fill="#1D1D1B" d="M400.597 435.506h30.363c1.404 0 2.554 1.147 2.554 2.55v8.5c0 1.4-1.15 2.55-2.554 2.55h-30.363c-1.405 0-2.554-1.148-2.554-2.55v-8.5c0-1.403 1.15-2.55 2.554-2.55M400.597 517.152h30.363c1.404 0 2.554 1.147 2.554 2.55v8.5c0 1.4-1.15 2.55-2.554 2.55h-30.363c-1.405 0-2.554-1.148-2.554-2.55v-8.5c0-1.403 1.15-2.55 2.554-2.55M292.044 435.506h30.363c1.404 0 2.554 1.147 2.554 2.55v8.5c0 1.4-1.148 2.55-2.553 2.55h-30.363c-1.405 0-2.554-1.148-2.554-2.55v-8.5c0-1.403 1.15-2.55 2.554-2.55M292.044 517.152h30.363c1.404 0 2.554 1.147 2.554 2.55v8.5c0 1.4-1.148 2.55-2.553 2.55h-30.363c-1.405 0-2.554-1.148-2.554-2.55v-8.5c0-1.403 1.15-2.55 2.554-2.55"/><path fill="#333F48" d="M438.787 527.852c9.402 0 17.024-7.61 17.024-16.998v-54.97c0-9.388-7.62-17-17.023-17h-157.9c-9.402 0-17.024 7.612-17.024 17v54.97c0 9.388 7.622 16.998 17.024 16.998h157.9z"/><path fill="#E5F5F9" d="M316.493 448.28h33.197c4.682 0 8.512 3.826 8.512 8.5v52.695c0 4.674-3.83 8.5-8.512 8.5h-33.197c-4.682 0-8.512-3.826-8.512-8.5V456.78c0-4.674 3.83-8.5 8.513-8.5M421.855 448.28h.755c4.682 0 8.512 3.826 8.512 8.5v52.695c0 4.674-3.83 8.5-8.512 8.5h-.755c-4.682 0-8.512-3.826-8.512-8.5V456.78c0-4.674 3.83-8.5 8.512-8.5"/><path fill="#F47706" d="M456.21 502.064c.655 0 1.185 2.443 1.185 5.456 0 3.012-.53 5.456-1.185 5.456s-1.185-2.443-1.185-5.456c0-3.013.53-5.456 1.185-5.456M456.21 453.762c.655 0 1.185 2.443 1.185 5.456s-.53 5.455-1.185 5.455-1.185-2.442-1.185-5.455.53-5.456 1.185-5.456"/><path fill="#262F35" d="M271.48 524.803c-1.92-2.752-3.053-6.09-3.053-9.7v-56.67c0-9.388 6.01-15.205 15.414-15.205h159.603c3.613 0 6.608 1.132 9.364 3.05-3.075-4.41-7.832-7.3-13.62-7.3h-157.9c-9.402 0-17.116 7.517-17.116 16.904v54.972c0 5.78 2.896 10.878 7.31 13.95"/><path fill="#1D1D1B" d="M400.597 242.58h30.363c1.404 0 2.554 1.146 2.554 2.55v8.498c0 1.402-1.15 2.55-2.554 2.55h-30.363c-1.405 0-2.554-1.147-2.554-2.55v-8.5c0-1.402 1.15-2.55 2.554-2.55M400.597 324.225h30.363c1.404 0 2.554 1.147 2.554 2.55v8.5c0 1.4-1.15 2.55-2.554 2.55h-30.363c-1.405 0-2.554-1.148-2.554-2.55v-8.5c0-1.403 1.15-2.55 2.554-2.55M292.044 242.58h30.363c1.404 0 2.554 1.146 2.554 2.55v8.498c0 1.402-1.148 2.55-2.553 2.55h-30.363c-1.405 0-2.554-1.147-2.554-2.55v-8.5c0-1.402 1.15-2.55 2.554-2.55M292.044 324.225h30.363c1.404 0 2.554 1.147 2.554 2.55v8.5c0 1.4-1.148 2.55-2.553 2.55h-30.363c-1.405 0-2.554-1.148-2.554-2.55v-8.5c0-1.403 1.15-2.55 2.554-2.55"/><path fill="#333F48" d="M438.787 334.925c9.402 0 17.024-7.61 17.024-16.998v-54.97c0-9.388-7.62-17-17.023-17h-157.9c-9.402 0-17.024 7.612-17.024 17v54.97c0 9.388 7.622 16.998 17.024 16.998h157.9z"/><path fill="#E5F5F9" d="M316.493 255.354h33.197c4.682 0 8.512 3.825 8.512 8.5v52.695c0 4.673-3.83 8.498-8.512 8.498h-33.197c-4.682 0-8.512-3.825-8.512-8.5v-52.695c0-4.674 3.83-8.5 8.513-8.5M421.855 255.354h.755c4.682 0 8.512 3.825 8.512 8.5v52.695c0 4.673-3.83 8.498-8.512 8.498h-.755c-4.682 0-8.512-3.825-8.512-8.5v-52.695c0-4.674 3.83-8.5 8.512-8.5"/><path fill="#F47706" d="M456.21 309.137c.655 0 1.185 2.443 1.185 5.456 0 3.013-.53 5.456-1.185 5.456s-1.185-2.444-1.185-5.457.53-5.456 1.185-5.456M456.21 260.834c.655 0 1.185 2.443 1.185 5.456s-.53 5.455-1.185 5.455-1.185-2.442-1.185-5.455.53-5.456 1.185-5.456"/><path fill="#262F35" d="M271.48 331.875c-1.92-2.752-3.053-6.09-3.053-9.7v-56.67c0-9.388 6.01-15.205 15.414-15.205h159.603c3.613 0 6.608 1.132 9.364 3.05-3.075-4.41-7.832-7.3-13.62-7.3h-157.9c-9.402 0-17.116 7.517-17.116 16.905v54.97c0 5.78 2.896 10.88 7.31 13.95"/><path fill="#1D1D1B" d="M400.597 50.5h30.363c1.404 0 2.554 1.148 2.554 2.55v8.5c0 1.402-1.15 2.55-2.554 2.55h-30.363c-1.405 0-2.554-1.147-2.554-2.55v-8.5c0-1.4 1.15-2.55 2.554-2.55M400.597 132.147h30.363c1.404 0 2.554 1.147 2.554 2.55v8.5c0 1.4-1.15 2.55-2.554 2.55h-30.363c-1.405 0-2.554-1.148-2.554-2.55v-8.5c0-1.402 1.15-2.55 2.554-2.55M292.044 50.5h30.363c1.404 0 2.554 1.148 2.554 2.55v8.5c0 1.402-1.148 2.55-2.553 2.55h-30.363c-1.405 0-2.554-1.147-2.554-2.55v-8.5c0-1.4 1.15-2.55 2.554-2.55M292.044 132.147h30.363c1.404 0 2.554 1.147 2.554 2.55v8.5c0 1.4-1.148 2.55-2.553 2.55h-30.363c-1.405 0-2.554-1.148-2.554-2.55v-8.5c0-1.402 1.15-2.55 2.554-2.55"/><path fill="#333F48" d="M438.787 142.847c9.402 0 17.024-7.61 17.024-16.998V70.877c0-9.387-7.62-16.998-17.023-16.998h-157.9c-9.402 0-17.024 7.61-17.024 16.998v54.972c0 9.388 7.622 16.998 17.024 16.998h157.9z"/><path fill="#E5F5F9" d="M316.493 63.277h33.197c4.682 0 8.512 3.825 8.512 8.5v52.695c0 4.674-3.83 8.5-8.512 8.5h-33.197c-4.682 0-8.512-3.826-8.512-8.5V71.776c0-4.675 3.83-8.5 8.513-8.5M421.855 63.277h.755c4.682 0 8.512 3.825 8.512 8.5v52.695c0 4.674-3.83 8.5-8.512 8.5h-.755c-4.682 0-8.512-3.826-8.512-8.5V71.776c0-4.675 3.83-8.5 8.512-8.5"/><path fill="#F47706" d="M456.21 117.06c.655 0 1.185 2.443 1.185 5.456 0 3.013-.53 5.456-1.185 5.456s-1.185-2.443-1.185-5.456c0-3.014.53-5.456 1.185-5.456M456.21 68.757c.655 0 1.185 2.443 1.185 5.456 0 3.013-.53 5.455-1.185 5.455s-1.185-2.442-1.185-5.455.53-5.456 1.185-5.456"/><path fill="#262F35" d="M271.48 139.798c-1.92-2.752-3.053-6.09-3.053-9.7V73.43c0-9.388 6.01-15.205 15.414-15.205h159.603c3.613 0 6.608 1.132 9.364 3.05-3.075-4.41-7.832-7.3-13.62-7.3h-157.9c-9.402 0-17.116 7.517-17.116 16.905v54.972c0 5.78 2.896 10.877 7.31 13.948"/><path fill="none" stroke="#fff" stroke-width="7" stroke-linecap="round" stroke-linejoin="round" stroke-miterlimit="10" d="M3.702 3.405h453.693"/><path fill="none" stroke="#fff" stroke-width="7" stroke-linejoin="round" stroke-miterlimit="10" d="M227.143.43v568.583"/><path fill="none" stroke="#fff" stroke-width="7" stroke-linecap="round" stroke-linejoin="round" stroke-miterlimit="10" d="M3.702 192.932h453.693M3.702 382.46h453.693M3.628 572.43h453.694"/></svg>